<svg width="1332" height="235" viewBox="0 0 1332 235" fill="none" xmlns="http://www.w3.org/2000/svg">
<path d="M114.735 221C110.621 221 106.967 221 102.957 221C112.727 186.997 122.386 153.382 132.314 118.833C126.636 120.055 121.432 120.821 116.444 122.312C94.5729 128.852 75.305 139.93 58.2033 155.144C43.0402 168.633 31.0746 184.309 22.7363 202.75C20.5364 207.615 18.7752 212.69 17.0265 217.742C16.2264 220.054 15.1765 221.213 12.5186 221.061C8.42767 220.827 4.31348 221 0.156433 221C21.3598 147.133 42.4153 73.7813 63.5377 0.196655C68.4589 0.196655 73.5742 0.196655 78.9162 0.196655C77.3665 7.68942 75.2178 14.8954 74.4831 22.2428C72.4761 42.3135 74.6793 61.4421 88.2617 77.8486C100.44 92.5593 116.828 98.7299 134.853 101.766C135.703 101.909 137.538 99.8796 137.921 98.571C146.345 69.7883 154.629 40.9643 162.939 12.1481C164.095 8.13709 165.251 4.12561 166.394 0.157166C171.669 0.157166 176.641 0.157166 181.187 0.157166C179.458 11.2915 176.464 22.3165 176.342 33.373C176.176 48.4776 179.729 63.1387 189.168 75.6516C200.678 90.9114 216.615 98.2371 235.027 100.983C241.498 101.948 248.014 102.619 255.01 103.487C253.972 107.748 253.093 112.129 251.719 116.349C251.438 117.21 249.303 117.903 248.007 117.932C234.99 118.215 222.26 120.519 210.213 125.165C192.944 131.825 177.085 140.97 162.967 153.291C151.698 163.125 141.682 173.974 134.155 186.695C128.424 196.381 124.483 207.153 120.092 217.588C119.011 220.156 117.938 221.433 114.735 221Z" fill="#7D00FF"/>
<path d="M1233.01 11C1242.34 10.9166 1251.12 10.7255 1259.65 13.9483C1271.51 18.4315 1278.51 30.26 1275.17 42.5128C1273.19 49.7677 1271.43 57.0832 1269.47 64.7814C1289.63 64.7814 1310.14 64.7814 1331.74 64.7814C1329.48 71.7195 1327.27 77.8247 1325.54 84.0649C1324.68 87.176 1323.29 88.1049 1320.09 88.079C1300.61 87.9208 1281.12 88 1261.46 88C1255.12 107.391 1248.75 126.665 1242.54 145.991C1241.37 149.643 1241.02 153.705 1244.2 156.551C1248.22 160.15 1253.36 160.512 1258.47 159.775C1268.6 158.31 1274.43 152.121 1277.03 142.449C1277.95 139.044 1279.22 135.736 1280.4 132.171C1289.99 132.171 1299.78 132.171 1310.69 132.171C1306.73 141.194 1303.48 150.098 1299.04 158.361C1291.95 171.566 1279.67 178.276 1265.53 180.793C1252.77 183.064 1239.67 183.541 1226.94 179.936C1215 176.549 1205.44 167.896 1209.08 153.496C1213.94 134.258 1220.42 115.428 1226.18 96.4158C1226.97 93.817 1227.63 91.1795 1228.44 88.2197C1215.77 88.2197 1203.66 88.2197 1191.34 88.2197C1181.43 118.72 1171.5 149.289 1161.55 179.902C1150.78 179.902 1140.13 179.902 1129.01 179.902C1138.96 149.345 1148.84 119.013 1158.92 88.0662C1152.02 88.0662 1146.23 88.0662 1139.42 88.0662C1141.41 81.6308 1143.31 75.7864 1145 69.8825C1146.02 66.3302 1147.62 64.4451 1151.83 64.8849C1156.6 65.3836 1161.46 65 1166.6 65C1171.08 50.7825 1174.69 36.0901 1187 25.9893C1200.25 15.1129 1215.52 10.4487 1233.01 11ZM1202.49 54.009C1201.33 57.5615 1200.18 61.114 1198.97 64.8145C1211.94 64.8145 1224.39 64.8145 1236.9 64.8145C1238.75 58.1658 1240.69 51.705 1242.31 45.1651C1243.32 41.0957 1241.96 37.6794 1238.14 35.6221C1225.39 28.7641 1206.27 36.2858 1202.49 54.009Z" fill="white"/>
<path d="M722 93.0798C721.856 107.561 716.258 120.199 712.03 133.19C708.158 145.086 702.031 155.721 693.03 164.312C681.151 175.65 666.887 182.061 650.19 181.952C643.454 181.909 636.655 181.813 630.007 180.872C622.829 179.856 616.544 176.756 612.447 170.147C611.542 168.688 609.408 167.446 607.715 167.264C606.941 167.181 605.508 169.796 604.979 171.388C598.104 192.072 591.339 212.793 584.448 233.8C574.063 233.8 563.286 233.8 551.542 233.8C552.427 231.363 553.257 229.261 553.961 227.117C562.859 200.026 571.754 172.933 580.62 145.831C589.09 119.942 597.494 94.0321 606.064 68.1765C606.488 66.8963 608.198 65.1673 609.345 65.139C619.147 64.8973 628.958 65.0006 639.388 65.0006C637.94 69.5314 636.642 73.5924 635.028 78.6443C637.422 77.7632 639.556 77.4716 641.065 76.3439C652.405 67.8676 665.137 63.4753 679.226 63.0232C688.375 62.7296 697.441 62.8781 706.032 66.9556C716.947 72.1365 721.566 81.0204 722 93.0798ZM674.864 87.3389C668.071 87.226 661.232 86.5633 654.495 87.1244C643.396 88.0487 635.184 94.3636 629.027 103.252C621.853 113.61 619.243 125.871 616.2 137.757C614.049 146.158 617.79 152.712 623.887 156.045C630.613 159.722 637.851 159.389 644.961 158.899C658.629 157.959 669.958 151.981 675.876 139.392C680.676 129.179 683.843 118.152 687.187 107.317C690.031 98.0998 684.972 90.2504 674.864 87.3389Z" fill="white"/>
<path d="M327.981 60.9105C333.1 44.7943 338.201 29.0887 343.369 13.1732C353.982 13.1732 364.78 13.1732 376.111 13.1732C369.007 35.053 361.966 56.739 354.53 79.6422C356.928 78.7368 358.716 78.5135 359.897 77.548C378.556 62.2979 399.611 59.3256 422.084 66.1992C430.629 68.8125 435.262 76.9956 435.999 86.5742C436.91 98.4151 432.719 109.162 429.075 120.094C422.45 139.973 416.163 159.965 409.736 179.903C398.782 179.903 388.14 179.903 376.978 179.903C380.435 169.258 383.796 158.843 387.201 148.442C391.287 135.961 395.51 123.523 399.49 111.009C403.34 98.9025 398.626 90.7607 390.84 89.3268C383.321 87.9419 375.032 87.7982 367.61 89.4641C354.197 92.4748 346.852 102.396 342.928 115.325C338.554 129.738 333.641 143.988 328.963 158.309C326.973 164.401 324.822 170.448 323.073 176.609C322.296 179.344 320.997 180.107 318.27 180.062C308.78 179.902 299.285 180 289.154 180C293.164 167.512 297.069 155.271 301.025 143.046C309.709 116.213 318.417 89.3876 327.135 62.5656C327.283 62.1093 327.681 61.734 327.981 60.9105Z" fill="white"/>
<path d="M857.281 118.321C856.021 122.039 855.385 125.614 853.802 128.704C853.14 129.999 850.473 130.897 848.712 130.906C820.395 131.039 792.077 131 763.759 131C762.099 131 760.439 131 757.39 131C757.088 136.677 756.102 142.41 756.673 147.983C757.292 154.034 761.917 157.556 767.63 158.95C783.859 162.909 804.05 160.801 816.329 145.232C817.22 144.102 819.055 143.128 820.473 143.097C829.464 142.906 838.46 143 847.835 143C842.27 155.933 833.214 165.396 821.187 171.925C807.992 179.088 793.797 182.378 778.702 182.059C767.264 181.817 755.926 182.237 744.813 178.14C730.372 172.815 720.31 156.892 724.213 141.965C727.686 128.688 731.322 115.139 737.325 102.906C747.828 81.5037 766.477 69.4539 789.663 65.1938C799.604 63.3674 809.972 62.7969 820.08 63.2194C832.8 63.7511 845.133 66.5676 854.341 76.7775C858.419 81.2992 860.573 86.511 860.98 92.4742C861.575 101.201 860.634 109.745 857.281 118.321ZM770.735 110C790.037 110 809.338 110 828.751 110C828.949 108.24 828.957 106.769 829.298 105.381C830.917 98.788 827.489 91.4697 821.634 88.1782C814.959 84.426 807.76 84.8157 800.606 85.0469C788.406 85.4412 778.258 90.3918 770.663 99.9733C768.483 102.724 767.228 106.209 765.206 110C767.494 110 768.649 110 770.735 110Z" fill="white"/>
<path d="M1105.97 66.975C1124.87 73.6097 1131.23 88.9291 1126.92 108.192C1123.66 122.771 1119.52 137.193 1110.98 149.761C1099.65 166.434 1083.5 176.358 1064 179.737C1051.92 181.829 1039.33 182.439 1027.1 181.702C1013.77 180.898 1001.22 176.731 993.477 164.092C988.847 156.537 988.739 147.987 990.372 140.316C992.954 128.184 996.677 115.99 1001.99 104.809C1012.76 82.1724 1031.84 69.4006 1056.25 65.1832C1066.54 63.4034 1077.2 63.0872 1087.68 63.2241C1093.66 63.3021 1099.6 65.6346 1105.97 66.975ZM1088.96 127.308C1090.83 120.858 1092.76 114.425 1094.56 107.955C1096.5 100.969 1093.5 90.5489 1083.73 87.8589C1076.66 85.9133 1069.8 85.7442 1062.58 86.8875C1051.76 88.6002 1043.18 93.3862 1036.92 102.456C1029.37 113.406 1026.55 126.196 1023.23 138.658C1021.54 145.006 1023.09 152.645 1032.04 156.614C1040.08 160.178 1048.48 159.366 1056.72 158.522C1061.01 158.083 1065.35 156.17 1069.24 154.11C1079.74 148.541 1085.11 138.935 1088.96 127.308Z" fill="white"/>
<path d="M481.718 211.782C476.483 219.005 471.532 225.988 466.502 232.913C466.093 233.476 465.17 233.755 464.429 233.959C463.809 234.13 463.106 234 462.439 234C453.362 234 444.284 234 434.306 234C440.35 225.891 445.79 218.529 451.299 211.22C456.766 203.968 462.654 197.001 467.625 189.428C469.481 186.599 470.189 182.316 469.83 178.861C468.607 167.074 466.535 155.378 465.059 143.613C463.84 133.896 463.154 124.113 461.961 114.392C460.457 102.131 458.63 89.9104 457.044 77.6591C456.522 73.6304 456.319 69.5605 455.947 65.2453C467.292 65.2453 478.38 65.2453 489.592 65.2453C492.439 89.6522 495.284 114.055 498.161 138.722C502.503 139.443 505.756 139.224 508.921 134.831C522.644 115.775 536.917 97.1155 550.964 78.2934C553.376 75.0615 555.688 71.754 558.007 68.4537C559.767 65.9491 561.839 64.7663 565.185 64.8933C573.66 65.215 582.155 65 591.677 65C587.632 70.4198 584.014 75.2407 580.424 80.0818C566.254 99.1868 552.15 118.341 537.911 137.394C525.492 154.013 512.923 170.52 500.424 187.079C494.273 195.226 488.13 203.378 481.718 211.782Z" fill="white"/>
<path d="M878.175 101.566C881.451 87.8152 889.849 79.0653 901.678 72.6052C919.255 63.0066 938.213 62.1385 957.339 63.2633C964.341 63.6751 971.663 66.0271 977.977 69.2058C991.967 76.2484 993.293 88.9242 988.855 102.195C988.571 103.046 986.877 103.548 985.745 103.95C985.005 104.212 984.097 104 983.264 104C974.618 104 965.973 104 956.833 104C957.286 102.096 957.665 100.6 957.995 99.0928C959.879 90.5061 956.229 84.5672 947.417 84.2146C939.495 83.8975 931.382 84.732 923.593 86.2702C919.985 86.9827 916.33 90.0401 913.776 92.9744C908.462 99.0797 910.584 105.758 918.459 107.903C927.288 110.308 936.365 111.786 945.233 114.061C954.083 116.332 963.035 118.458 970.299 124.676C976.147 129.681 978.035 135.658 976.438 143.18C971.985 164.15 957.026 173.592 938.066 179.042C923.013 183.369 907.624 182.22 892.385 181.762C883.45 181.494 874.77 178.399 867.348 172.782C862.97 169.469 859.047 157.993 860.524 152.995C860.616 152.685 860.892 152.423 860.957 152.112C863.09 142.001 863.088 142 873.134 142C879.944 142 886.754 142 893.967 142C893.967 143.214 894.185 144.209 893.934 145.068C890.645 156.372 895.657 159.59 904.191 160.573C914.046 161.709 924.557 162.934 934.226 158.034C938.876 155.677 942.268 152.607 943.101 147.062C943.628 143.56 942.9 141.058 939.487 139.951C932.047 137.537 924.603 135.103 917.058 133.057C909.46 130.996 901.341 130.349 894.16 127.373C882.703 122.626 876.446 118.678 878.175 101.566Z" fill="white"/>
</svg>