<svg width="343" height="298" viewBox="0 0 343 298" fill="none" xmlns="http://www.w3.org/2000/svg">
<path d="M241.327 77.125C245.339 90.9665 252.241 102.768 262.325 112.397C275.62 125.091 291.785 132.665 309.751 135.954C320.363 137.897 331.191 138.667 342.738 140.063C341.075 145.672 339.39 151.686 337.415 157.603C337.164 158.353 335.434 158.862 334.32 159.032C321.592 160.98 308.721 162.223 296.145 164.873C278.815 168.524 263.034 176.418 247.852 185.323C228.801 196.498 212.298 210.957 197.749 227.404C180.76 246.611 167.88 268.411 160.409 293.152C159.944 294.693 159.486 296.236 159.003 297.851C152.18 297.851 145.411 297.851 138.279 297.851C151.375 252.235 164.385 206.92 177.667 160.655C139.859 166.299 108.013 182.83 79.8957 207.109C51.5462 231.588 31.0074 261.254 20.7977 297.876C14.2072 297.876 7.42239 297.876 0 297.876C2.7868 288.22 5.51334 278.923 8.15302 269.601C16.5902 239.804 24.8992 209.971 33.4452 180.205C39.5743 158.858 46.1237 137.631 52.2692 116.288C60.0747 89.1804 67.64 62.0036 75.3536 34.8693C78.2794 24.577 81.4987 14.3645 84.2243 4.02074C85.0792 0.776052 86.5277 -0.123393 89.6524 0.0131429C94.7784 0.237142 99.9213 0.0738119 105.832 0.0738119C104.575 5.34365 103.529 10.0418 102.331 14.701C99.0304 27.5405 97.5342 40.6405 98.4787 53.7998C100.214 77.9803 108.622 99.4132 127.462 115.542C140.186 126.436 155.275 132.818 171.678 136.058C175.648 136.842 179.651 137.457 184.019 138.216C190.702 114.984 197.334 91.96 203.947 68.9308C210.518 46.0483 217.071 23.1606 223.65 0.212667C230.208 0.212667 236.522 0.212667 243.506 0.212667C242.265 5.91805 240.909 11.4792 239.874 17.0996C238.867 22.5668 238.164 28.0907 237.379 33.5971C236.986 36.3493 236.392 39.1226 236.434 41.8781C236.614 53.6796 237.176 65.4529 241.327 77.125Z" fill="#7D00FF"/>
</svg>